<svg xmlns="http://www.w3.org/2000/svg" width="128" height="275" version="1">
<defs id="rounded">
    <style type="text/css" id="current-color-scheme">
        .ColorScheme-Text {
        color:#eff0f1;
        }
        .ColorScheme-NegativeText {
        color:#da4453;
        }
        .ColorScheme-Highlight {
        color:#3daee9;
        }
        .ColorScheme-Background {
        color:#31363b;
      }
      .ColorScheme-ButtonBackground {
        color:#444c53;
      }
    </style>
 </defs>
 <rect id="hint-tile-center" style="fill:#ff0000" width="7" height="7" x="0" y="0"/>
 <path id="topright" style="fill:currentColor" class="ColorScheme-Background" d="m 104,12 v 24 h 24 c 0,-14 -10,-24 -24,-24 z"/>
 <rect id="top" style="fill:currentColor" class="ColorScheme-Background" width="80" height="24" x="24" y="12"/>
 <rect id="center" style="fill:currentColor" class="ColorScheme-Background" width="80" height="80" x="24" y="36"/>
 <path id="topleft" style="fill:currentColor" class="ColorScheme-Background" d="M 24,12 V 36 H 0 C 0,22 10,12 24,12 Z"/>
 <path id="bottomright" style="fill:currentColor" class="ColorScheme-Background" d="m 104,140 v -24 h 24 c 0,14 -10,24 -24,24 z"/>
 <rect id="bottom" style="fill:currentColor" class="ColorScheme-Background" width="80" height="24" x="24" y="-140" transform="scale(1,-1)"/>
 <path id="bottomleft" style="fill:currentColor" class="ColorScheme-Background" d="M 24,140 V 116 H 0 c 0,14 10,24 24,24 z"/>
 <rect id="left" style="fill:currentColor" class="ColorScheme-Background" width="80" height="24" x="36" y="-24" transform="rotate(90)"/>
 <rect id="right" style="fill:currentColor" class="ColorScheme-Background" width="80" height="24" x="36" y="-128" transform="rotate(90)"/>
 <rect id="hint-top-margin" style="fill:#ff0000" width="8" height="14" x="60" y="36"/>
 <rect id="hint-left-margin" style="fill:#ff0000" width="14" height="8" x="24" y="70"/>
 <rect id="hint-right-margin" style="fill:#ff0000" width="14" height="8" x="90" y="70"/>
 <rect id="hint-bottom-margin" style="fill:#ff0000" width="8" height="14" x="60" y="102"/>
 <path id="mask-topright" d="m 104,147 v 24 h 24 c 0,-14 -10,-24 -24,-24 z"/>
 <rect id="mask-top" width="80" height="24" x="24" y="147"/>
 <rect id="mask-center" width="80" height="80" x="24" y="171"/>
 <path id="mask-topleft" d="m 24,147 v 24 H 0 c 0,-14 10,-24 24,-24 z"/>
 <path id="mask-bottomright" d="m 104,275 v -24 h 24 c 0,14 -10,24 -24,24 z"/>
 <rect id="mask-bottom" width="80" height="24" x="24" y="-275" transform="scale(1,-1)"/>
 <path id="mask-bottomleft" d="M 24,275 V 251 H 0 c 0,14 10,24 24,24 z"/>
 <rect id="mask-left" width="80" height="24" x="171" y="-24" transform="rotate(90)"/>
 <rect id="mask-right" width="80" height="24" x="171" y="-128" transform="rotate(90)"/>
</svg>
