<svg xmlns="http://www.w3.org/2000/svg" width="128" height="80" version="1">
<defs id="rounded">
    <style type="text/css" id="current-color-scheme">
        .ColorScheme-Text {
        color:#eff0f1;
        }
        .ColorScheme-NegativeText {
        color:#da4453;
        }
        .ColorScheme-Highlight {
        color:#3daee9;
        }
        .ColorScheme-Background {
        color:#31363b;
      }
      .ColorScheme-ButtonBackground {
        color:#444c53;
      }
    </style>
 </defs>
 <rect id="hint-tile-center" style="fill:#ff0000" width="10" height="10" x="0" y="0"/>
 <path id="topright" style="fill:currentColor" class="ColorScheme-Background" d="m 114,16 v 14 h 14 c 0,-7.732 -6.268,-14 -14,-14 z"/>
 <rect id="top" style="fill:currentColor" class="ColorScheme-Background" width="36" height="14" x="78" y="16"/>
 <rect id="center" style="fill:currentColor" class="ColorScheme-Background" width="36" height="36" x="78" y="30"/>
 <path id="topleft" style="fill:currentColor" class="ColorScheme-Background" d="m 78,16 v 14 h -14 c 0,-7.732 6.268,-14 14,-14 z"/>
 <path id="bottomright" style="fill:currentColor" class="ColorScheme-Background" d="m 114,80 v -14 h 14 c 0,7.732 -6.268,14 -14,14 z"/>
 <rect id="bottom" style="fill:currentColor" class="ColorScheme-Background" width="36" height="14" x="78" y="-80" transform="scale(1,-1)"/>
 <path id="bottomleft" style="fill:currentColor" class="ColorScheme-Background" d="M 78,80 V 66 h -14 c 0,7.732 6.268,14 14,14 z"/>
 <rect id="left" style="fill:currentColor" class="ColorScheme-Background" width="36" height="14" x="30" y="-78" transform="rotate(90)"/>
 <rect id="right" style="fill:currentColor" class="ColorScheme-Background" width="36" height="14" x="30" y="-128" transform="rotate(90)"/>
 <rect id="thick-hint-top-margin" style="fill:#ff00ff" width="4" height="8" x="93" y="16"/>
 <rect id="hint-top-margin" style="fill:#ff0000" width="4" height="2" x="93" y="16"/>
 <rect id="thick-hint-left-margin" style="fill:#ff00ff" width="4" height="8" x="45" y="-72" transform="rotate(90)"/>
 <rect id="hint-left-margin" style="fill:#ff0000" width="2" height="4" x="64" y="45"/>
 <rect id="thick-right-margin" style="fill:#ff00ff" width="4" height="8" x="45" y="-128" transform="rotate(90)"/>
 <rect id="hint-right-margin" style="fill:#ff0000" width="2" height="4" x="126" y="45"/>
 <rect id="thick-hint-bottom-margin" style="fill:#ff00ff" width="4" height="8" x="94" y="72"/>
 <rect id="hint-bottom-margin" style="fill:#ff0000" width="4" height="2" x="94" y="78"/>
 <path id="mask-topright" d="m 50,16 v 14 h 14 c 0,-7.732 -6.268,-14 -14,-14 z"/>
 <rect id="mask-top" width="36" height="14" x="14" y="16"/>
 <rect id="mask-center" width="36" height="36" x="14" y="30"/>
 <path id="mask-topleft" d="m 14,16 v 14 H 0 c 0,-7.732 6.268,-14 14,-14 z"/>
 <path id="mask-bottomright" d="m 50,80 v -14 h 14 c 0,7.732 -6.268,14 -14,14 z"/>
 <rect id="mask-bottom" width="36" height="14" x="14" y="-80" transform="scale(1,-1)"/>
 <path id="mask-bottomleft" d="m 14,80 v -14 H 0 c 0,7.732 6.268,14 14,14 z"/>
 <rect id="mask-left" width="36" height="14" x="30" y="-14" transform="rotate(90)"/>
 <rect id="mask-right" width="36" height="14" x="30" y="-64" transform="rotate(90)"/>
 <rect id="hint-stretch-borders" style="fill:#ff0000" width="10" height="10" x="10" y="0"/>
 <rect id="thick-center" style="fill:#800080" width="4" height="4" x="20" y="6"/>
</svg>
